# xmcd
#
# Track frame offsets: 
#        150
#        10470
#        20477
#        33037
#        43327
#        49982
#        58702
#        67817
#        75542
#        89847
#        101287
#        114055
#        126797
#        136127
#        148005
#        162805
#
# Disc length: 2311 seconds
#
# Revision: 2
# Processed by: cddbd v1.5.2PL0 Copyright (c) Steve Scherf et al.
# Submitted via: ExactAudioCopy v1.0b3
#
DISCID=ce090510
DTITLE=Various Artist - テレビアニメスーパーヒストリー Vol.2
DYEAR=1998
DGENRE=Anime
TTITLE0=宍倉正信・西六郷少年合唱団 - 海賊王子
TTITLE1=ボーカル・ショップ - 海賊稼業はやめられない
TTITLE2=ボーカル・ショップ - 遊星仮面
TTITLE3=ダイヤモンド・シスターズ - 魔法使いサリー
TTITLE4=朝井ゆかり、野沢雅子、加藤みどり、千々松幸子、平井道子 - いたずらのうた
TTITLE5=ヤング・フレッシュ - 悟空の大冒険マーチ
TTITLE6=ヤング・フレッシュ - 悟空が好き好き
TTITLE7=ボーカル・ショップ - 黄金バット
TTITLE8=天地総子、ポン・クール - ピッカリ・ビーのうた
TTITLE9=真理ヨシコ - ピッカリ・ビーはいいな
TTITLE10=前川陽子、ルナ・アルモニコ - リボンの騎士
TTITLE11=前川陽子、ヤング・フレッシュ - リボンのマーチ
TTITLE12=高橋元太郎、東京マイスタージンガー - マッハ・ゴー・ゴー・ゴー
TTITLE13=三輪勝恵、石川進 - ぼくらのパーマン
TTITLE14=ボーカル・ショップ - 冒険ガボテン島
TTITLE15=大平透・コロンビアゆりかご会 - おらぁグズラだど
EXTD=
EXTT0=
EXTT1=
EXTT2=
EXTT3=
EXTT4=
EXTT5=
EXTT6=
EXTT7=
EXTT8=
EXTT9=
EXTT10=
EXTT11=
EXTT12=
EXTT13=
EXTT14=
EXTT15=
PLAYORDER=
